# xmcd
#
# Track frame offsets: 
#        150
#        26262
#        45350
#        71050
#        90762
#        114462
#        133100
#        150050
#        185825
#        208175
#        231875
#        258575
#        277100
#        299937
#
# Disc length: 4343 seconds
#
# Revision: 2
# Processed by: cddbd v1.5.1PL0 Copyright (c) Steve Scherf et al.
# Submitted via: ExactAudioCopy v0.95b3
#
DISCID=cb10f50e
DTITLE=Thomas Stelzer Trio - Sweat Sweat Sweat
DYEAR=1992
DGENRE=Other
TTITLE0=Sweat, Sweat, Sweat
TTITLE1=It's A Rainy Day
TTITLE2=Midnight Hour Blues
TTITLE3=What A Day
TTITLE4=Anywhere
TTITLE5=Reaggea Meets Blues
TTITLE6=Ain't Got No Money
TTITLE7=Summertime
TTITLE8=I Gotta Good Woman
TTITLE9=My Baby Makes Me Wonder
TTITLE10=For Today
TTITLE11=Go Tell It On The Mountain
TTITLE12=Me And My Boogie Shoes
TTITLE13=She's Gone
EXTD=
EXTT0=
EXTT1=
EXTT2=
EXTT3=
EXTT4=
EXTT5=
EXTT6=
EXTT7=
EXTT8=
EXTT9=
EXTT10=
EXTT11=
EXTT12=
EXTT13=
PLAYORDER=
